<svg viewBox="0 0 222.1 76.52" xmlns="http://www.w3.org/2000/svg" xmlns:xlink="http://www.w3.org/1999/xlink" id="_图层_1" overflow="hidden"><defs></defs><path d="M49.09 11.11C50.19 12.95 51.98 11.67 53.4 12.08 55.22 12.6 57.79 11.9 58.02 14.96 50.74 15.41 43.46 14.82 36.18 15.01 32.42 15.11 28.65 15.03 24.88 15.03 33.71 15.05 42.55 15.06 51.38 15.03 53.57 15.03 55.92 15 57.27 16.81 59.49 19.79 58.17 15.47 59.08 16.05 62.42 16.76 61.95 19.51 61.99 21.8 62.09 27.86 62.37 33.94 61.92 39.97 61.57 44.65 62.81 46.37 67.67 45.82 70.23 45.53 73.87 44.25 74.89 48.65 75.6 49.7 75.46 50.48 74.2 50.93 71.83 49.62 69.6 47.88 67.05 48.61 69.19 48.91 72.5 48.23 72.55 52.46 72.3 53.2 71.93 53.76 71.01 53.58 69.07 50.05 65.69 51.56 63.13 51.87 60.95 52.13 62.38 54.86 62.06 56.46 61.72 58.17 62.61 58.6 64.26 58.64 66.33 58.69 68.6 58.82 69.25 61.52 68.77 61.99 68.18 62.19 67.51 62.19 60.04 62.19 59.42 62.73 58.49 70.03 58.36 71.04 58.17 71.93 57.07 72.3 54.87 70.3 54.69 67.7 55.47 65.18 56.63 61.46 55.76 57.72 56.12 54.02 56.31 52.01 55.41 51.6 53.57 51.58 51.62 51.56 51.19 52.28 51.06 54.12 50.73 58.72 49.54 63.07 46.25 66.56 45.44 66.29 44.92 65.76 44.82 64.89 45.12 61.77 47.16 59.21 47.61 56.12 48.13 52.52 47.9 49.01 46.58 45.59 45.94 43.94 45.08 42.31 45.66 40.43 46.01 39.67 46.6 39.18 47.36 38.87 49.94 38.11 52.6 38.32 55.21 38.4 57.79 38.49 58.84 37.5 58.66 34.95 58.57 33.64 58.55 32.31 58.66 31 58.9 28.21 57.74 27.28 54.95 27.31 44.84 27.41 34.72 27.31 24.61 27.44 30.33 27.71 36.21 27.36 40.42 32.42 40.7 33.32 40.33 33.94 39.56 34.37 39.09 34.51 38.56 34.76 38.14 34.57 30.75 31.21 23.38 32.12 16 34.57 15.18 34.34 14.52 33.97 14.61 32.96 17.29 29.37 13.72 25.85 14.48 22.27 14.13 21.01 13.52 19.7 15.12 18.81 17.97 21.09 16.59 24.84 18.15 27.58 18.36 28.2 19.01 27.17 18.49 27.58 18.29 27.73 18.13 27.66 18.06 27.34 16.34 19.42 14.26 11.56 13.86 3.4 14.15 2.64 14.51 1.99 15.51 2.23 17.28 3.77 17.3 6.01 17.47 8.01 17.84 12.52 19.9 13.14 23.47 11.09 32.02 10.54 40.56 10.42 49.11 11.14Z" stroke-width="0" fill="#1F212B"/><path d="M57.06 72.29C57.21 71.99 57.49 71.69 57.48 71.41 57.12 61.62 59.94 59.23 69.24 61.51 69.8 61.86 70.36 62.2 70.92 62.55 72.2 66.13 72.49 69.61 69.96 72.83 70.03 73.41 69.72 73.52 69.23 73.39 65.73 76.06 62.23 75.99 58.72 73.39 58.16 73.02 57.6 72.65 57.05 72.28Z" stroke-width="0" fill="#728097"/><path d="M59.08 16.04C59.13 18.61 61.07 21.16 59.48 23.81 57.94 23.66 58.09 22.7 58.08 21.95 58.03 17.53 55.59 15.95 51.44 15.99 42.1 16.07 32.75 16.03 23.41 15.99 21.89 15.99 20.22 16.42 18.95 14.63 31.99 14.42 45 13.01 58.01 14.94 58.37 15.3 58.72 15.66 59.08 16.02Z" stroke-width="0" fill="#AEBACD"/><path d="M15.49 2.2C15.17 2.56 14.84 2.91 14.52 3.27 13.55 7.94 15.84 12.29 15.82 16.88 15.82 17.66 16.22 18.44 15.35 19 14.35 19.89 14.67 21.14 14.46 22.25 13.58 18.27 12.36 14.33 11.91 10.31 11.54 7.01 10.41 5.89 7.04 6.04 4.44 6.15 0.06 7.65 0 3.22-0.06-1.28 4.32 0.25 6.94 0.29 9.84 0.33 13.27-1.14 15.5 2.21Z" stroke-width="0" fill="#252731"/><path d="M41.31 71.51C32.55 78.06 22.14 78.04 13.43 71.45 13.69 70.65 14.21 70.15 15.05 69.99 16.41 69.95 17.61 70.53 18.81 71.07 24.74 73.7 30.63 73.56 36.5 70.88 37.69 70.33 38.89 69.75 40.27 69.88 41.06 70.15 41.67 70.52 41.32 71.52Z" stroke-width="0" fill="#2A2D37"/><path d="M78.79 57.56C80.51 59.59 82.38 58.2 84.15 57.73 86.37 57.14 87.7 57.38 88.34 60.05 88.95 62.59 87.92 63.19 85.84 63.61 83.5 64.08 81.23 64.95 78.88 65.39 76.81 65.78 74.91 65.46 74.81 62.68 74.41 62.05 74.38 61.38 74.55 60.67 77.15 60.05 79.22 64.19 81.75 61.45 79.54 62 77.18 62.24 77.23 58.55 77.51 57.84 77.9 57.32 78.79 57.56Z" stroke-width="0" fill="#2F313A"/><path d="M8.58 66.6C2.25 58.29 1.94 48.5 7.72 39.77 8.69 39.64 9.07 40.25 9.32 41.03 9.56 42.4 9.06 43.64 8.58 44.86 6.32 50.55 6.65 56.13 9.14 61.66 9.61 62.71 10.06 63.78 10.04 64.97 9.89 65.81 9.38 66.34 8.58 66.6Z" stroke-width="0" fill="#2A2C36"/><path d="M49.09 11.11C40.54 12.55 31.99 12.83 23.45 11.06 23.49 10.71 23.53 10.37 23.57 10.02 29.66 9.09 35.8 9.89 41.9 9.6 43.65 9.52 45.45 9.99 47.15 9.19 48.44 9.19 49.09 9.83 49.08 11.12Z" stroke-width="0" fill="#74839C"/><path d="M47.16 9.18C42.17 11.23 36.97 9.65 31.88 10.04 29.13 10.25 26.35 10.04 23.58 10.01 27.2 8 31.11 9.37 34.87 9.15 38.95 8.91 43.07 9.15 47.17 9.17Z" stroke-width="0" fill="#1F212B"/><path d="M58.73 73.4C62.23 74.39 65.73 74.52 69.24 73.4 66.11 77.58 61.94 77.58 58.73 73.4Z" stroke-width="0" fill="#32343D"/><path d="M78.79 57.56C78.4 58.01 78.02 58.45 77.63 58.9 75.45 58.33 75.11 56.27 74.2 54.67 73.83 53.33 73.06 52 74 50.6 74.29 49.95 74.59 49.29 74.88 48.64 76.66 51.41 77.84 54.43 78.78 57.56Z" stroke-width="0" fill="#393C45"/><path d="M8.77 41.02C8.42 40.6 8.07 40.18 7.72 39.76 9.28 36.75 11.55 34.45 14.58 32.92 14.98 33.26 15.37 33.6 15.77 33.94 14.62 37.47 12.24 39.78 8.77 41.01Z" stroke-width="0" fill="#2B2E3A"/><path d="M69.96 72.83C71.16 69.49 70.35 65.95 70.92 62.55 73.95 67.15 73.71 69.77 69.96 72.83Z" stroke-width="0" fill="#32343D"/><path d="M75.08 60.11C74.99 60.97 74.9 61.82 74.81 62.68 73.55 59.64 72.28 56.61 71.02 53.57 71.39 53.14 71.77 52.71 72.14 52.28 73.98 52.52 73.88 54.34 74.71 55.41 75.45 56.92 76.45 58.42 75.08 60.1Z" stroke-width="0" fill="#353842"/><path d="M8.58 66.6C8.95 66.22 9.31 65.83 9.68 65.45 12.79 65.59 14.4 67.25 14.59 70.33 14.21 70.7 13.82 71.08 13.44 71.45 11.3 70.35 9.67 68.75 8.59 66.6Z" stroke-width="0" fill="#2D303C"/><path d="M41.31 71.51 40.21 70.38C40.5 67.29 41.93 65.37 45.3 65.47 45.61 65.82 45.92 66.18 46.23 66.53 45.2 68.79 43.5 70.39 41.31 71.51Z" stroke-width="0" fill="#2D303C"/><path d="M45.31 65.47C43.61 67.11 41.92 68.75 40.22 70.38 31.66 75.55 23.12 75.59 14.58 70.33 12.94 68.7 11.31 67.07 9.67 65.45 4.71 57.48 4.53 49.33 8.77 41.02 11.1 38.66 13.44 36.3 15.77 33.95 23.54 29.82 31.31 29.84 39.07 33.95 42.68 35.01 45.02 37.33 46.06 40.95 50.48 49.27 50.09 57.44 45.3 65.47Z" stroke-width="0" fill="#74839B"/><path d="M40.24 32.91C35.5 29.4 30.11 28.5 24.4 29.02 22.93 29.15 21.3 29.77 21.27 27.38 21.25 25.11 23.07 25.96 24.12 25.96 34.94 25.9 45.77 26.02 56.59 25.86 59.56 25.82 60.04 27.02 60.09 29.63 60.29 39.79 60.38 39.79 50.21 39.76 49.23 39.76 48.24 39.73 47.26 39.71 44.2 38.19 42.06 35.71 40.23 32.91Z" stroke-width="0" fill="#3A82C0"/><path d="M37.29 18C42.06 18 46.83 18.05 51.59 17.98 54.29 17.94 56.07 18.76 56.1 21.82 56.13 25.53 53.28 23.82 51.82 23.84 42.45 24.01 33.07 23.73 23.71 24.03 20.29 24.14 19.92 22.2 19.72 19.92 19.42 16.52 22.16 18.14 23.48 18.08 28.07 17.87 32.68 18 37.29 18Z" stroke-width="0" fill="#FEFEFE"/><path d="M15.35 19C14.61 14.54 13.96 10.07 13.07 5.64 12.77 4.14 12.35 3.04 14.52 3.28 16.09 12.06 17.66 20.85 19.23 29.63 16 26.61 16.35 22.6 15.35 19Z" stroke-width="0" fill="#A3AEC0"/><path d="M59.48 41.96 59.48 59.92C59.16 59.91 58.84 59.9 58.52 59.89L58.52 41.95C58.84 41.95 59.16 41.96 59.48 41.97Z" stroke-width="0" fill="#B0BCCF"/><path d="M74.04 55.53C73.4 54.45 72.77 53.37 72.13 52.28 71.87 49.9 70.27 49.65 68.27 49.61 66.25 49.56 64.09 50.27 62.1 48.99 66.38 46.45 71.75 47.22 74 50.6 74.35 51.83 74.7 53.06 75.04 54.29 75.47 55.32 75 55.63 74.03 55.53Z" stroke-width="0" fill="#AAB6C9"/><path d="M49.18 41.8C51.46 42.57 54.48 39.9 56.03 43.49 56.47 44.51 56.16 45.7 54.43 45.72 51.76 45.74 48.99 46.11 49.18 41.81Z" stroke-width="0" fill="#FBFBFB"/><path d="M40.24 32.91C43.27 34.47 45.37 36.98 47.27 39.71 46.87 40.13 46.47 40.54 46.06 40.96 43.73 38.63 41.4 36.29 39.07 33.96 39.46 33.61 39.85 33.26 40.24 32.91Z" stroke-width="0" fill="#272C38"/><path d="M49.83 48.79C52.71 47.42 54.3 47.4 56.35 48.38 54.53 50.32 52.85 49.64 49.83 48.79Z" stroke-width="0" fill="#B0BCCF"/><path d="M68.88 67.65C68.15 70.02 66.4 71.98 64.47 71.85 62.04 71.69 60.2 69.43 60.28 66.75 60.36 64.02 62.87 63.38 64.92 63.38 67.47 63.38 67.89 65.96 68.88 67.65Z" stroke-width="0" fill="#ABB6C9"/><path d="M2.24 3.35C5.25 1.81 8.23 2.06 11.21 3.11 8.24 4.6 5.24 4.06 2.24 3.35Z" stroke-width="0" fill="#6E7B93"/><path d="M74.04 55.53C74.38 55.12 74.71 54.7 75.05 54.29 75.91 55.83 76.77 57.36 77.63 58.9 77.92 61.62 79.86 60.41 81.34 60.59 82.84 60.77 84.23 58.54 85.78 60.42 79.74 64.34 77.9 64.28 75.08 60.11 75.46 58.42 74.23 57.09 74.05 55.53Z" stroke-width="0" fill="#A1ACBE"/><path d="M30.39 34.81C37.83 37.25 43.71 41.24 45.21 49.63 45.98 51.62 45.98 53.61 45.21 55.59 44.45 62.96 38.45 68.95 30.3 70.46 28.05 71.12 25.8 71.12 23.54 70.46 16.02 68.19 11.32 63.27 9.61 55.57 8.86 53.59 8.86 51.62 9.61 49.64 11.63 42.24 15.79 36.84 23.51 34.77 25.8 34.1 28.1 34.03 30.38 34.8Z" stroke-width="0" fill="#B0BCCF"/><path d="M30.39 34.81C28.1 34.8 25.81 34.79 23.52 34.78 25.82 33.31 28.11 33.23 30.39 34.81Z" stroke-width="0" fill="#252833"/><path d="M23.55 70.46C25.8 70.46 28.05 70.46 30.31 70.46 28.06 72 25.81 71.89 23.55 70.46Z" stroke-width="0" fill="#272A36"/><path d="M9.62 49.64C9.62 51.62 9.62 53.59 9.62 55.57 8.06 53.59 8.06 51.62 9.62 49.64Z" stroke-width="0" fill="#272A35"/><path d="M45.21 55.59C45.21 53.6 45.21 51.61 45.21 49.63 46.78 51.62 46.78 53.61 45.21 55.59Z" stroke-width="0" fill="#282B37"/><path d="M56.5 36.86C56.16 33.94 55.72 31.24 56.7 27.77 57.21 31.41 57.31 34.24 56.5 36.86Z" stroke-width="0" fill="#1F232F"/><path d="M22.98 53.05C22.8 49.67 24.45 48.4 27.41 48.68 29.68 48.9 32.54 49.31 32.13 52.28 31.81 54.62 30.79 57.72 27.38 57.43 24.95 57.22 23.22 55.66 22.98 53.05Z" stroke-width="0" fill="#718098"/><text font-family="AlibabaPuHuiTi-Heavy,Alibaba PuHuiTi" font-weight="800" font-size="36" transform="matrix(0.71 0 0 1 91.78 51.18)"><tspan fill="#252731" x="0" y="0">Free </tspan><tspan fill="#252731" letter-spacing="-0.04em" x="86.69" y="0">T</tspan><tspan fill="#252731" x="105.7" y="0">o </tspan><tspan fill="#3A82C0" x="137.27" y="0">Go</tspan></text></svg>